<?xml version="1.0" standalone="no"?>
<!DOCTYPE svg PUBLIC "-//W3C//DTD SVG 1.1//EN" "http://www.w3.org/Graphics/SVG/1.1/DTD/svg11.dtd" >
<!--
2013-9-30: Created.
-->
<svg>
<metadata>
Created by iconfont
</metadata>
<defs>

<font id="iconfont" horiz-adv-x="1024" >
  <font-face
    font-family="iconfont"
    font-weight="500"
    font-stretch="normal"
    units-per-em="1024"
    ascent="896"
    descent="-128"
  />
    <missing-glyph />
    
    <glyph glyph-name="x" unicode="x" horiz-adv-x="1001"
d="M281 543q-27 -1 -53 -1h-83q-18 0 -36.5 -6t-32.5 -18.5t-23 -32t-9 -45.5v-76h912v41q0 16 -0.5 30t-0.5 18q0 13 -5 29t-17 29.5t-31.5 22.5t-49.5 9h-133v-97h-438v97zM955 310v-52q0 -23 0.5 -52t0.5 -58t-10.5 -47.5t-26 -30t-33 -16t-31.5 -4.5q-14 -1 -29.5 -0.5
t-29.5 0.5h-32l-45 128h-439l-44 -128h-29h-34q-20 0 -45 1q-25 0 -41 9.5t-25.5 23t-13.5 29.5t-4 30v167h911zM163 247q-12 0 -21 -8.5t-9 -21.5t9 -21.5t21 -8.5q13 0 22 8.5t9 21.5t-9 21.5t-22 8.5zM316 123q-8 -26 -14 -48q-5 -19 -10.5 -37t-7.5 -25t-3 -15t1 -14.5
t9.5 -10.5t21.5 -4h37h67h81h80h64h36q23 0 34 12t2 38q-5 13 -9.5 30.5t-9.5 34.5q-5 19 -11 39h-368zM336 498v228q0 11 2.5 23t10 21.5t20.5 15.5t34 6h188q31 0 51.5 -14.5t20.5 -52.5v-227h-327z" />
    

    
    <glyph glyph-name="circle" unicode="&#58977;" d="M512 848.113363C255.677147 848.113363 47.886637 640.322853 47.886637 384S255.677147-80.11336300000005 512-80.11336300000005s464.113363 207.79051 464.113363 464.113363S768.322853 848.113363 512 848.113363zM512 149.89721799999995c-128.160915 0-232.057193 103.895255-232.057193 232.057193s103.895255 232.057193 232.057193 232.057193 232.057193-103.895255 232.057193-232.057193S640.161938 149.89721799999995 512 149.89721799999995z"  horiz-adv-x="1024" />

    
    <glyph glyph-name="warning" unicode="&#58885;" d="M501.31566 101.20626200000004c-26.723641 0-48.464805-21.741163-48.464805-48.463782 0-26.722618 21.741163-48.464805 48.464805-48.464805 26.722618 0 48.464805 21.742187 48.464805 48.464805C549.780465 79.46509900000001 528.038278 101.20626200000004 501.31566 101.20626200000004zM501.314637 178.37071300000002c-19.780509 0-35.815717 16.035208-35.815717 35.815717l0 497.735112c0 19.780509 16.035208 35.815717 35.815717 35.815717s35.815717-16.035208 35.815717-35.815717l0-497.735112C537.130354 194.40592100000003 521.095145 178.37071300000002 501.314637 178.37071300000002z"  horiz-adv-x="1024" />

    
    <glyph glyph-name="loading" unicode="&#58980;" d="M512 779.508l0 0c14.831 0 24.719-9.888 24.719-24.719l0-103.821c0-14.831-9.888-24.719-24.719-24.719l0 0c-14.831 0-24.719 9.888-24.719 24.719l0 103.821c0 14.831 9.888 24.719 24.719 24.719l0 0 0 0zM512 141.75300000000004l0 0c14.831 0 24.719-9.888 24.719-24.719l0-103.821c0-14.831-9.888-24.719-24.719-24.719l0 0c-14.831 0-24.719 9.888-24.719 24.719l0 103.821c0 14.831 9.888 24.719 24.719 24.719l0 0 0 0zM907.508 384l0 0c0-14.831-9.888-24.719-24.719-24.719l-103.821 0c-14.831 0-24.719 9.888-24.719 24.719l0 0c0 14.831 9.888 24.719 24.719 24.719l103.821 0c14.831 0 24.719-9.888 24.719-24.719l0 0 0 0zM269.753 384l0 0c0-14.831-9.888-24.719-24.719-24.719l-103.821 0c-14.831 0-24.719 9.888-24.719 24.719l0 0c0 14.831 9.888 24.719 24.719 24.719l103.821 0c14.831 0 24.719-9.888 24.719-24.719l0 0 0 0zM853.125 581.754l0 0c4.943-9.888 4.943-24.719-9.888-34.607l-88.989-54.384c-9.888-4.943-24.719-4.943-34.607 9.888l0 0c-4.943 9.888-4.943 24.719 9.888 34.607l88.989 54.382c14.831 4.943 29.663 4.943 34.607-9.888l0 0 0 0zM304.359 265.347l0 0c4.943-9.888 4.943-24.719-9.888-34.607l-88.989-54.382c-9.888-4.943-24.719-4.943-34.607 9.888l0 0c-4.943 9.888-4.943 24.719 9.888 34.607l88.989 54.384c9.888 4.943 24.719 0 34.607-9.888l0 0 0 0zM709.754 725.125l0 0c9.888-4.943 14.831-19.776 9.888-34.607l-54.382-88.989c-4.943-9.888-19.776-14.831-34.607-9.888l0 0c-9.888 4.943-14.831 19.776-9.888 34.607l54.384 88.989c9.888 14.831 24.719 19.776 34.607 9.888l0 0 0 0zM393.347 176.35900000000004l0 0c9.888-4.943 14.831-19.776 9.888-34.607l-54.382-88.989c-9.888-14.831-24.719-14.831-34.607-9.888l0 0c-9.888 4.943-14.831 19.776-9.888 34.607l54.382 88.989c4.943 14.831 19.776 14.831 34.607 9.888l0 0 0 0zM314.246 725.125l0 0c9.888 9.888 24.719 4.943 34.607-4.943l54.384-88.989c4.943-9.888 4.943-24.719-9.888-34.607l0 0c-14.831-9.888-29.663-4.943-34.607 4.943l-54.382 93.933c-4.943 9.888 0 24.719 9.888 29.663l0 0 0 0zM630.653 176.35900000000004l0 0c9.888 4.943 24.719 4.943 34.607-9.888l54.382-88.989c4.943-9.888 4.943-24.719-9.888-34.607l0 0c-9.888-4.943-24.719-4.943-34.607 9.888l-54.384 88.989c-4.943 14.831 0 29.663 9.888 34.607l0 0 0 0zM170.875 581.754l0 0c4.943 9.888 19.776 14.831 34.607 9.888l88.989-54.382c9.888-4.943 14.831-19.776 9.888-29.663l0 0c-9.888-14.831-24.719-19.776-34.607-9.888l-88.989 49.438c-14.831 9.888-19.776 24.719-9.888 34.607l0 0 0 0zM719.641 265.347l0 0c4.943 9.888 19.776 14.831 34.607 9.888l88.989-54.382c9.888-4.943 14.831-19.776 9.888-34.607l0 0c-4.943-9.888-19.776-14.831-34.607-9.888l-88.989 54.382c-9.888 4.943-14.831 19.776-9.888 34.607l0 0 0 0zM719.641 265.347z"  horiz-adv-x="1024" />

    
    <glyph glyph-name="knowledge" unicode="&#58989;" d="M64 704v-640c0-70.7 57.3-128 128-128v896c-70.7 0-128-57.3-128-128zM832 832v-255.1l-128.2 127.1-127.8-128v256h-320v-896h576c70.7 0 128 57.3 128 128v640c0 70.7-57.3 128-128 128zM832 192h-448v64h448v-64zM832 384h-448v64h448v-64z"  horiz-adv-x="1024" />

    
    <glyph glyph-name="info" unicode="&#58914;" d="M512-64c-60.5 0-119.1 11.8-174.4 35.2-53.4 22.6-101.3 54.9-142.4 96-41.1 41.1-73.4 89-96 142.4-23.4 55.3-35.2 113.9-35.2 174.4s11.8 119.1 35.2 174.4c22.6 53.4 54.9 101.3 96 142.4 41.1 41.1 89 73.4 142.4 96 55.3 23.4 113.9 35.2 174.4 35.2s119.1-11.8 174.4-35.2c53.4-22.6 101.3-54.9 142.4-96 41.1-41.1 73.4-89 96-142.4 23.4-55.3 35.2-113.9 35.2-174.4s-11.8-119.1-35.2-174.4c-22.6-53.4-54.9-101.3-96-142.4-41.1-41.1-89-73.4-142.4-96-55.3-23.4-113.9-35.2-174.4-35.2zM512 768c-211.7 0-384-172.3-384-384s172.3-384 384-384 384 172.3 384 384-172.3 384-384 384zM513.1 103.5c-26.5 0-48 21.5-48 48v272.8c0 26.5 21.5 48 48 48s48-21.5 48-48v-272.7c0-26.6-21.5-48.1-48-48.1zM464 568.5c0-26.51 21.49-48 48-48s48 21.49 48 48c0 26.51-21.49 48-48 48-26.51 0-48-21.49-48-48z"  horiz-adv-x="1024" />

    
    <glyph glyph-name="search" unicode="&#58934;" d="M950.6-9.4l-179 179c26.7 31.2 48.3 66.2 64.4 104.2 21 49.6 31.6 102.2 31.6 156.4s-10.7 106.9-31.6 156.4c-20.2 47.8-49.2 90.8-86.1 127.7-36.9 36.9-79.9 65.9-127.7 86.1-49.6 21-102.2 31.6-156.4 31.6s-106.8-10.6-156.4-31.6c-47.8-20.2-90.8-49.2-127.7-86.1-36.9-36.9-65.9-79.9-86.1-127.7-21-49.5-31.6-102.2-31.6-156.4s10.6-106.8 31.6-156.4c20.2-47.8 49.2-90.8 86.1-127.7 36.9-36.9 79.9-65.9 127.7-86.1 49.6-21 102.2-31.6 156.4-31.6s106.8 10.6 156.4 31.6c38 16.1 72.9 37.7 104.2 64.4l179-179c6.2-6.2 14.4-9.4 22.6-9.4s16.4 3.1 22.6 9.4c12.5 12.5 12.5 32.7 0 45.2zM465.8 92.4c-186.3 0-337.8 151.6-337.8 337.8 0 186.3 151.5 337.8 337.8 337.8s337.8-151.5 337.8-337.8c0-91.7-36.8-175-96.3-236-1-0.8-2-1.6-2.9-2.6-0.9-0.9-1.8-1.9-2.6-2.9-61-59.5-144.3-96.3-236-96.3z"  horiz-adv-x="1024" />

    
    <glyph glyph-name="job" unicode="&#58936;" d="M376 344.5c0-22.1 17.9-40 40-40h192c22.1 0 40 17.9 40 40v22.5h-272v-22.5zM896 637.5h-151.1v50.7c0 52.9-43.1 96-96 96h-273.8c-52.9 0-96-43.1-96-96v-50.7h-151.1c-35.3 0-64-28.7-64-64v-493.8c0-35.3 28.7-64 64-64h768c35.3 0 64 28.7 64 64v493.8c0 35.4-28.7 64-64 64zM343.1 688.3c0 17.6 14.4 32 32 32h273.8c17.6 0 32-14.4 32-32v-50.7h-337.8v50.7zM839.6 367h-143.6v-22.5c0-48.5-39.5-88-88-88h-192c-48.5 0-88 39.5-88 88v22.5h-140.8c-17.7 0-32 14.3-32 32s14.3 32 32 32h652.4c17.7 0 32-14.3 32-32s-14.3-32-32-32z"  horiz-adv-x="1024" />

    
    <glyph glyph-name="edit" unicode="&#58942;" d="M832-32h-640c-52.9 0-96 43.1-96 96v640c0 52.9 43.1 96 96 96h249.2c17.7 0 32-14.3 32-32s-14.3-32-32-32h-249.2c-17.6 0-32-14.4-32-32v-640c0-17.6 14.4-32 32-32h640c17.6 0 32 14.4 32 32v249.2c0 17.7 14.3 32 32 32s32-14.3 32-32v-249.2c0-52.9-43.1-96-96-96zM458.1 160h-138.1c-17.7 0-32 14.3-32 32v138.1c0 25.6 10 49.8 28.1 67.9l347.4 347.4c18.1 18.1 42.2 28.1 67.9 28.1 25.6 0 49.8-10 67.9-28.1l74.1-74.1c18.1-18.1 28.1-42.2 28.1-67.9s-10-49.8-28.1-67.9l-347.5-347.4c-18.1-18.1-42.2-28.1-67.8-28.1zM352 224h106.1c8.5 0 16.6 3.3 22.6 9.4l347.4 347.4c6 6 9.4 14.1 9.4 22.6s-3.3 16.6-9.4 22.6l-74.1 74.1c-6 6-14.1 9.4-22.6 9.4s-16.6-3.3-22.6-9.4l-347.4-347.4c-6-6-9.4-14.1-9.4-22.6v-106.1z"  horiz-adv-x="1024" />

    
    <glyph glyph-name="collecte2_off" unicode="&#58961;" d="M512-22.7l-342.3 320.9-42.2 42.2c-24.1 24.1-42.3 53-54 85.9-11 30.9-15.9 63.8-14.4 98 2.9 68.1 31.5 134.1 78.5 181.1 47.4 47.4 110.4 73.5 177.5 73.5s130.1-26.1 177.5-73.5l19.6-19.6 19.7 19.7c47.4 47.3 110.4 73.4 177.3 73.4h0.1c67 0 129.9-26.1 177.3-73.4l0.2-0.2c46.9-47 75.5-113 78.4-181.1 1.4-34.1-3.4-67.1-14.5-97.9-11.7-32.8-29.9-61.7-54.1-85.8l-42.9-42.9-341.7-320.3zM214.6 343.8l297.4-278.8 297.4 278.8 41.8 41.8c34.4 34.4 52.1 82.6 49.8 135.8-2.2 52.2-24 102.7-59.7 138.5l-0.2 0.2c-35.3 35.3-82.2 54.8-132.2 54.8-49.8 0-96.7-19.4-132-54.5l-64.9-65.2-64.8 64.8c-72.9 72.9-191.5 72.9-264.4 0-35.8-35.8-57.6-86.3-59.8-138.6-2.3-53.2 15.4-101.5 49.8-135.8l41.8-41.8z"  horiz-adv-x="1024" />

    
    <glyph glyph-name="collecte2_on" unicode="&#58966;" d="M886.2 701.7c-90.9 90.9-238.3 91-329.3 0.1l-0.1-0.1-44.8-44.9-44.9 44.9c-90.9 90.9-238.4 90.9-329.4 0s-101.6-249-10.6-340l44.9-44.9 340-318.7 340 318.7 44.9 44.9c90.9 90.9 80.3 248.9-10.7 340 0.1-0.1 0-0.1 0 0z"  horiz-adv-x="1024" />

    
    <glyph glyph-name="search1" unicode="&#58881;" d="M950.6-9.399999999999977l-179 179c26.7 31.2 48.3 66.2 64.4 104.2 21 49.6 31.6 102.2 31.6 156.4S856.9 537.1 836 586.6c-20.2 47.8-49.2 90.8-86.1 127.7-36.9 36.9-79.9 65.9-127.7 86.1C572.6 821.4 520 832 465.8 832S359 821.4 309.4 800.4c-47.8-20.2-90.8-49.2-127.7-86.1-36.9-36.9-65.9-79.9-86.1-127.7C74.6 537.1 64 484.4 64 430.2s10.6-106.8 31.6-156.4c20.2-47.8 49.2-90.8 86.1-127.7 36.9-36.9 79.9-65.9 127.7-86.1 49.6-21 102.2-31.6 156.4-31.6S572.6 39 622.2 60c38 16.1 72.9 37.7 104.2 64.4l179-179c6.2-6.2 14.4-9.4 22.6-9.4s16.4 3.1 22.6 9.4c12.5 12.5 12.5 32.7 0 45.2zM465.8 92.39999999999998C279.5 92.39999999999998 128 244 128 430.2 128 616.5 279.5 768 465.8 768s337.8-151.5 337.8-337.8c0-91.7-36.8-175-96.3-236-1-0.8-2-1.6-2.9-2.6-0.9-0.9-1.8-1.9-2.6-2.9-61-59.5-144.3-96.3-236-96.3z"  horiz-adv-x="1024" />

    
    <glyph glyph-name="close" unicode="&#58882;" d="M557.3 384l329.4 329.4c12.5 12.5 12.5 32.8 0 45.3s-32.8 12.5-45.3 0L512 429.3 182.6 758.6c-12.5 12.5-32.8 12.5-45.3 0s-12.5-32.8 0-45.3L466.7 384 137.4 54.60000000000002c-12.5-12.5-12.5-32.8 0-45.3 6.2-6.2 14.4-9.4 22.6-9.4s16.4 3.1 22.6 9.4L512 338.70000000000005l329.4-329.4c6.2-6.2 14.4-9.4 22.6-9.4s16.4 3.1 22.6 9.4c12.5 12.5 12.5 32.8 0 45.3L557.3 384z"  horiz-adv-x="1024" />

    
    <glyph glyph-name="yes" unicode="&#58883;" d="M356 52.700000000000045L73.4 335.4c-12.5 12.5-12.5 32.8 0 45.3s32.8 12.5 45.3 0L356 143.29999999999995l549.4 549.4c12.5 12.5 32.8 12.5 45.3 0s12.5-32.8 0-45.3L356 52.700000000000045z"  horiz-adv-x="1024" />

    
    <glyph glyph-name="arrow-left" unicode="&#58884;" d="M553.6-77.70000000000005c-8.2 0-16.4 3.1-22.6 9.4L126.3 336.4c-18.7 18.7-18.7 49.2 0 67.9L531 808.9c12.5 12.5 32.8 12.5 45.3 0s12.5-32.8 0-45.3L182.9 370.29999999999995l393.4-393.4c12.5-12.5 12.5-32.8 0-45.3-6.3-6.2-14.5-9.3-22.7-9.3z"  horiz-adv-x="1024" />

    
    <glyph glyph-name="arrow-right" unicode="&#58886;" d="M289.9-93c-8.2 0-16.4 3.1-22.6 9.4-12.5 12.5-12.5 32.8 0 45.3L660.6 355 267.2 748.4c-12.5 12.5-12.5 32.8 0 45.3s32.8 12.5 45.3 0L717.2 389c9.1-9.1 14.1-21.1 14.1-33.9s-5-24.9-14.1-33.9L312.5-83.60000000000002c-6.2-6.3-14.4-9.4-22.6-9.4z m382 436.7z"  horiz-adv-x="1024" />

    
    <glyph glyph-name="arrow-down" unicode="&#58887;" d="M497.9 43.799999999999955c-12.8 0-24.9 5-33.9 14.1L59.3 462.5c-12.5 12.5-12.5 32.8 0 45.3s32.8 12.5 45.3 0L498 114.39999999999998l393.4 393.4c12.5 12.5 32.8 12.5 45.3 0s12.5-32.8 0-45.3L531.8 57.799999999999955c-9-9-21.1-14-33.9-14z"  horiz-adv-x="1024" />

    
    <glyph glyph-name="com_home" unicode="&#58962;" d="M946.78 497L533.92 821a32 32 0 0 1-39.32 0.14L369 724v69.6a32 32 0 0 1-32 32H234.32a32 32 0 0 1-32-32v-198.38L75.46 497.16a32 32 0 1 1 39.14-50.64l4.89 3.78v-410.65c0-59.46 46-107.83 102.5-107.83h578.08c56.52 0 102.5 48.37 102.5 107.83V450.36l4.7-3.69A32 32 0 1 1 946.78 497zM266.32 761.65H305v-83.85c0-1 0.05-2.08 0.15-3.11l-38.82-30z m320-765.83h-169.5V253a37.38 37.38 0 0 0 37.33 37.33H549A37.38 37.38 0 0 0 586.28 253z m252.29 43.83c0-24.17-17.27-43.83-38.5-43.83H650.28V253A101.45 101.45 0 0 1 549 354.30999999999995h-94.8A101.45 101.45 0 0 1 352.82 253v-257.18H222c-21.23 0-38.5 19.66-38.5 43.83V499.77L514 755.26l324.57-254.68z"  horiz-adv-x="1024" />

    
    <glyph glyph-name="guanbicuowushibaicha" unicode="&#58970;" d="M824.63 117.18L552.27 389.54 823 660.32a31.72 31.72 0 0 1 0 44.68 31.72 31.72 0 0 1-44.72 0L507.54 434.27l-272 272a31.72 31.72 0 0 1-44.72 0 31.72 31.72 0 0 1 0-44.72l272-272-273.6-273.6a31.72 31.72 0 0 1 0-44.72 31.72 31.72 0 0 1 44.72 0l273.6 273.6 272.37-272.37a31.72 31.72 0 0 1 44.72 0 31.72 31.72 0 0 1 0 44.72z"  horiz-adv-x="1024" />

    
    <glyph glyph-name="shujuzhexian" unicode="&#59011;" d="M515 833.05c-247.78 0-448.65-200.87-448.65-448.65S267.26-64.24 515-64.24s448.69 200.86 448.69 448.65S762.82 833.05 515 833.05z m272-720.63a383.25 383.25 0 1 0 82.48 122.28A383.45 383.45 0 0 0 787 112.42zM752.26 567.44a31.9 31.9 0 0 1-22.63-9.33l-199-199-118.31 118.36a31.9 31.9 0 0 1-22.63 9.33h-1.58a31.9 31.9 0 0 1-22.63-9.33L225.32 337.31a32.09 32.09 0 0 1 0-45.25 32.09 32.09 0 0 1 45.25 0L388.9 410.38l118.33-118.33a31.9 31.9 0 0 1 22.63-9.33h1.6a31.9 31.9 0 0 1 22.63 9.33l220.8 220.81a32 32 0 0 1-22.63 54.59z"  horiz-adv-x="1024" />

    
    <glyph glyph-name="arrow-up" unicode="&#58889;" d="M75.6 193.29999999999995c-8.2 0-16.4 3.1-22.6 9.4-12.5 12.5-12.5 32.8 0 45.3l404.7 404.7c18.7 18.7 49.2 18.7 67.9 0L930.3 248c12.5-12.5 12.5-32.8 0-45.3s-32.8-12.5-45.3 0L491.6 596.1 98.2 202.70000000000005c-6.2-6.3-14.4-9.4-22.6-9.4z"  horiz-adv-x="1024" />

    
    <glyph glyph-name="nengli" unicode="&#59359;" d="M883.136 776.384c31.68-31.68 36.16-81.408 4.48-113.088l-285.056-330.368c-40.768-49.792-117.696-54.336-167.488-13.568l-9.024 9.024a121.536 121.536 0 0 0 0 171.968l9.024 9.024 330.368 285.12c40.768 13.568 90.496 9.088 117.696-18.112zM385.28 97.6c-76.928-76.928-194.56-76.928-271.488 0-36.224 36.224-54.336 81.472-54.336 126.72 49.792-4.544 104.128 13.568 144.832 54.272 49.792 49.792 131.2 49.792 181.056 0s49.728-131.2 0-180.992z"  horiz-adv-x="1024" />

    
    <glyph glyph-name="computer1" unicode="&#58880;" d="M900.913131 768H123.086869C81.971717 768 48.614141 734.642424 48.614141 693.527273v-444.767677c0-41.115152 33.357576-74.472727 74.472728-74.472727h351.676767v-101.365657H114.812121c-20.557576 0-37.236364-16.678788-37.236363-37.236364s16.678788-37.236364 37.236363-37.236363h794.375758c20.557576 0 37.236364 16.678788 37.236363 37.236363s-16.678788 37.236364-37.236363 37.236364H549.236364v101.365657h351.676767c41.115152 0 74.472727 33.357576 74.472728 74.472727v444.767677c0 41.115152-33.357576 74.472727-74.472728 74.472727z m0-477.866667"  horiz-adv-x="1024" />

    


  </font>
</defs>
</svg>
